<svg xmlns="http://www.w3.org/2000/svg" xmlns:xlink="http://www.w3.org/1999/xlink" version="1.1" viewBox="0 0 96 120" x="0px" y="0px"><path d="M92.996 85.164h-35.992c-0.524 0-1.028-0.212-1.408-0.58l-51-50.080c-0.38-0.376-0.596-0.904-0.592-1.444s0.236-1.060 0.624-1.424c0.148-0.144 15.212-14.412 17.7-16.9 3.224-3.224 6.104-3.9 7.964-3.9 2.148 0 4.164 0.9 5.672 2.524 1.908 2.056 2.86 5.056 2.62 8.24-0.188 2.44 0.844 4.908 3.072 7.3 4.572 4.916 12.624 7.964 17.484 7.964l0.468-0.012c0.82 0.048 1.576 0.424 1.912 1.18 1.668 3.704 6.624 14.7 10.856 27.124h10.22c6.844 0 12.416 5.564 12.416 12.408v5.592c-0.016 1.108-0.916 2.008-2.016 2.008zM57.82 81.164h33.176v-3.592c0-4.632-3.764-8.408-8.408-8.408h-11.656c-0.86 0-1.624-0.556-1.908-1.368-3.884-11.656-8.556-22.288-10.632-26.944-5.836-0.268-14.536-3.68-19.68-9.232-2.96-3.212-4.4-6.772-4.124-10.328 0.156-2.044-0.424-3.984-1.568-5.212-0.52-0.568-1.416-1.244-2.736-1.244-1.58 0-3.36 0.94-5.136 2.728-2.080 2.084-12.348 11.824-16.26 15.544l48.932 48.056z" fill="#000000"/><path d="M92.776 77.508l-34.82-0.008-47.628-47.804 2.836-2.82 46.456 46.624 33.156 0.008z" fill="#000000"/><path d="M38.588 57.296c-0.812 0-1.584-0.5-1.876-1.304-0.392-1.040 0.136-2.188 1.18-2.572l24.42-9.040c1.044-0.392 2.188 0.148 2.58 1.18 0.384 1.048-0.148 2.196-1.18 2.58l-24.428 9.032c-0.224 0.084-0.464 0.124-0.696 0.124z" fill="#000000"/><path d="M44.248 62.952c-0.82 0-1.584-0.508-1.884-1.32-0.376-1.040 0.168-2.188 1.212-2.572l21.484-7.736c1.032-0.36 2.18 0.164 2.556 1.212 0.384 1.040-0.164 2.18-1.204 2.556l-21.484 7.744c-0.228 0.080-0.456 0.116-0.68 0.116z" fill="#000000"/><path d="M49.904 68.616c-0.804 0-1.568-0.492-1.872-1.296-0.392-1.032 0.128-2.188 1.164-2.58l15.444-5.852c1.028-0.392 2.184 0.124 2.584 1.164 0.392 1.032-0.132 2.188-1.164 2.58l-15.444 5.852c-0.236 0.096-0.48 0.132-0.712 0.132z" fill="#000000"/><path d="M10.996 57.164h-8c-1.1 0-2-0.9-2-2s0.9-2 2-2h8c1.1 0 2 0.9 2 2s-0.9 2-2 2z" fill="#000000"/><path d="M18.996 65.164h-16c-1.1 0-2-0.9-2-2s0.9-2 2-2h16c1.1 0 2 0.9 2 2s-0.9 2-2 2z" fill="#000000"/><path d="M26.996 73.164h-24c-1.1 0-2-0.9-2-2s0.9-2 2-2h24c1.1 0 2 0.9 2 2s-0.9 2-2 2z" fill="#000000"/><text x="0" y="111" fill="#000000" font-size="5px" font-weight="bold" font-family="'Helvetica Neue', Helvetica, Arial-Unicode, Arial, Sans-serif">Created by iconsmind.com</text><text x="0" y="116" fill="#000000" font-size="5px" font-weight="bold" font-family="'Helvetica Neue', Helvetica, Arial-Unicode, Arial, Sans-serif">from the Noun Project</text></svg>